<svg width="360" height="411" viewBox="0 0 360 411" fill="none" xmlns="http://www.w3.org/2000/svg">
<path d="M176.976 394.541C267.754 394.541 341.345 353.795 341.345 303.533C341.345 253.27 267.754 212.525 176.976 212.525C86.1976 212.525 12.6072 253.27 12.6072 303.533C12.6072 353.795 86.1976 394.541 176.976 394.541Z" fill="#F0F0F0"/>
<path d="M191.578 357.821C221.946 357.821 246.564 344.192 246.564 327.379C246.564 310.567 221.946 296.938 191.578 296.938C161.209 296.938 136.591 310.567 136.591 327.379C136.591 344.192 161.209 357.821 191.578 357.821Z" fill="#E0E0E0"/>
<path d="M290.462 324.355C305.74 324.355 318.125 317.499 318.125 309.041C318.125 300.583 305.74 293.726 290.462 293.726C275.185 293.726 262.8 300.583 262.8 309.041C262.8 317.499 275.185 324.355 290.462 324.355Z" fill="#E0E0E0"/>
<path d="M75.1248 343.421C104.046 343.421 127.49 330.44 127.49 314.426C127.49 298.413 104.046 285.432 75.1248 285.432C46.2041 285.432 22.7592 298.413 22.7592 314.426C22.7592 330.44 46.2041 343.421 75.1248 343.421Z" fill="#E0E0E0"/>
<path d="M276.53 312.497C269.122 304.944 264.773 274.178 271.994 268.181H308.758C315.958 274.178 311.638 304.901 304.236 312.49L304.034 312.698L303.775 312.95C303.566 313.152 303.343 313.354 303.106 313.548L302.933 313.685L302.371 314.11C302.063 314.33 301.743 314.535 301.414 314.722C295.322 318.235 285.437 318.235 279.346 314.722C279.022 314.534 278.698 314.326 278.381 314.102C278.201 313.973 278.028 313.843 277.862 313.706L277.639 313.534C277.416 313.346 277.2 313.159 276.998 312.965L276.703 312.677L276.53 312.497Z" fill="#37474F"/>
<path d="M305.568 265.769C313.956 270.614 313.956 278.462 305.568 283.308C297.18 288.154 283.579 288.154 275.191 283.308C266.803 278.462 266.803 270.614 275.191 265.769C283.579 260.923 297.18 260.923 305.568 265.769Z" fill="#455A64"/>
<path d="M301.536 268.102C307.692 271.658 307.692 277.418 301.536 280.975C295.38 284.532 285.386 284.532 279.216 280.975C273.046 277.418 273.06 271.658 279.216 268.102C285.372 264.545 295.373 264.545 301.536 268.102Z" fill="#263238"/>
<path d="M279.223 274.2C285.386 270.643 295.373 270.643 301.543 274.2C303.033 275.003 304.299 276.163 305.23 277.577C304.302 278.994 303.035 280.157 301.543 280.961C295.38 284.518 285.394 284.518 279.223 280.961C277.733 280.155 276.467 278.993 275.537 277.577C276.469 276.165 277.735 275.005 279.223 274.2V274.2Z" fill="#F5F5F5"/>
<path d="M293.962 264.494L288.72 260.743C288.72 260.743 284.4 238.085 288.137 228.343C291.874 218.602 298.735 218.638 302.011 221.251C305.287 223.865 303.494 232.051 302.155 236.774C300.535 242.47 295.387 267.986 299.016 277.037L293.962 264.494Z" fill="#407BFF"/>
<g opacity="0.2">
<path d="M293.962 264.494L288.72 260.743C288.72 260.743 284.4 238.085 288.137 228.343C291.874 218.602 298.735 218.638 302.011 221.251C305.287 223.865 303.494 232.051 302.155 236.774C300.535 242.47 295.387 267.986 299.016 277.037L293.962 264.494Z" fill="black"/>
</g>
<path d="M292.91 261.859C293.007 261.819 293.086 261.747 293.135 261.655C293.183 261.563 293.198 261.457 293.177 261.355C288.9 241.98 297.727 223.973 297.814 223.793C297.866 223.689 297.875 223.568 297.839 223.457C297.802 223.347 297.723 223.255 297.619 223.202C297.515 223.15 297.394 223.141 297.284 223.177C297.173 223.214 297.081 223.293 297.029 223.397C296.935 223.577 287.971 241.858 292.313 261.557C292.339 261.671 292.408 261.77 292.506 261.833C292.605 261.897 292.724 261.919 292.838 261.895L292.91 261.859Z" fill="white"/>
<path d="M291.701 258.598C291.701 258.598 291.11 256.819 293.731 256.366C296.352 255.912 297.331 253.73 297.605 250.073C297.878 246.415 298.958 243.794 302.242 243.254C305.525 242.714 308.174 244.37 310.313 242.722C312.451 241.073 317.974 237.098 322.553 238.913C327.132 240.727 325.642 244.673 323.273 247.193C320.904 249.713 320.191 250.598 322.02 254.738C323.849 258.878 322.517 262.745 318.29 263.717C314.064 264.689 311.695 264.185 311.63 268.829C311.566 272.976 310.723 276.857 306.396 278.426C302.971 279.666 299.291 280.03 295.69 279.485C294.478 279.379 293.329 278.901 292.399 278.117C291.521 277.231 291.679 276.245 291.679 275.093V258.598H291.701Z" fill="#407BFF"/>
<g opacity="0.1">
<path d="M291.701 258.598C291.701 258.598 291.11 256.819 293.731 256.366C296.352 255.912 297.331 253.73 297.605 250.073C297.878 246.415 298.958 243.794 302.242 243.254C305.525 242.714 308.174 244.37 310.313 242.722C312.451 241.073 317.974 237.098 322.553 238.913C327.132 240.727 325.642 244.673 323.273 247.193C320.904 249.713 320.191 250.598 322.02 254.738C323.849 258.878 322.517 262.745 318.29 263.717C314.064 264.689 311.695 264.185 311.63 268.829C311.566 272.976 310.723 276.857 306.396 278.426C302.971 279.666 299.291 280.03 295.69 279.485C294.478 279.379 293.329 278.901 292.399 278.117C291.521 277.231 291.679 276.245 291.679 275.093V258.598H291.701Z" fill="black"/>
</g>
<path d="M291.701 277.721C291.778 277.721 291.853 277.697 291.915 277.652C291.977 277.606 292.023 277.542 292.046 277.469C299.743 254.609 317.174 245.371 317.347 245.285C317.432 245.24 317.497 245.164 317.526 245.072C317.556 244.981 317.549 244.881 317.506 244.795C317.484 244.752 317.455 244.714 317.418 244.683C317.382 244.652 317.34 244.628 317.294 244.613C317.248 244.598 317.2 244.593 317.153 244.597C317.105 244.601 317.058 244.615 317.016 244.637C316.836 244.73 299.153 254.083 291.355 277.238C291.339 277.284 291.333 277.332 291.336 277.38C291.339 277.428 291.352 277.474 291.373 277.517C291.395 277.56 291.425 277.598 291.461 277.63C291.498 277.661 291.54 277.685 291.586 277.699C291.622 277.714 291.661 277.721 291.701 277.721V277.721Z" fill="white"/>
<path d="M302.746 257.791H302.825C307.865 256.646 315.9 257.266 315.979 257.273C316.076 257.281 316.171 257.251 316.245 257.189C316.319 257.127 316.366 257.038 316.375 256.942C316.379 256.893 316.373 256.845 316.359 256.799C316.344 256.753 316.32 256.71 316.288 256.673C316.257 256.636 316.218 256.606 316.175 256.584C316.132 256.562 316.085 256.549 316.037 256.546C315.706 256.546 307.8 255.912 302.666 257.086C302.583 257.109 302.51 257.162 302.462 257.234C302.413 257.306 302.392 257.393 302.401 257.479C302.411 257.566 302.451 257.646 302.514 257.705C302.577 257.765 302.659 257.801 302.746 257.806V257.791Z" fill="white"/>
<path d="M298.649 268.778C300.946 268.778 303.379 268.627 303.538 268.62C303.586 268.617 303.632 268.605 303.676 268.584C303.719 268.563 303.757 268.533 303.789 268.497C303.82 268.461 303.844 268.419 303.859 268.373C303.874 268.327 303.88 268.279 303.876 268.231C303.874 268.183 303.863 268.135 303.842 268.092C303.821 268.048 303.792 268.009 303.755 267.978C303.719 267.946 303.676 267.922 303.63 267.907C303.584 267.893 303.535 267.888 303.487 267.893C303.437 267.893 297.821 268.238 295.625 267.893C295.53 267.88 295.433 267.904 295.356 267.961C295.278 268.017 295.225 268.101 295.207 268.195C295.193 268.291 295.216 268.388 295.273 268.466C295.329 268.544 295.414 268.597 295.51 268.613C296.551 268.741 297.6 268.796 298.649 268.778Z" fill="white"/>
<path d="M305.107 255.106C305.155 255.103 305.202 255.091 305.245 255.069C305.288 255.048 305.327 255.019 305.358 254.983C305.39 254.946 305.414 254.904 305.429 254.858C305.444 254.813 305.45 254.765 305.446 254.717C305.271 252.103 304.73 249.527 303.84 247.063C303.803 246.974 303.733 246.902 303.644 246.863C303.556 246.824 303.456 246.821 303.365 246.854C303.32 246.872 303.279 246.898 303.244 246.932C303.21 246.965 303.182 247.005 303.164 247.049C303.145 247.094 303.135 247.141 303.135 247.189C303.135 247.238 303.145 247.285 303.163 247.33C304.027 249.723 304.56 252.223 304.747 254.76C304.751 254.853 304.79 254.941 304.858 255.005C304.925 255.07 305.014 255.106 305.107 255.106Z" fill="white"/>
<path d="M291.6 280.198C287.975 281.308 284.122 281.449 280.426 280.608C274.018 279.233 272.47 275.316 272.47 275.316C272.47 275.316 277.034 270.571 281.074 270.276C277.042 269.675 272.937 269.763 268.934 270.535C268.934 270.535 265.226 269.167 265.925 262.968C265.925 262.968 269.417 260.426 277.445 261.42C277.445 261.42 273.42 258.583 266.357 257.741C265.802 257.741 266.558 249.677 267.228 246.077C267.898 242.477 269.237 243.038 272.124 243.348C275.011 243.658 284.098 246.66 285.178 248.726C286.258 250.793 285.178 256.042 285.178 256.042C285.178 256.042 287.82 253.882 288.403 251.232C290.431 251.416 292.354 252.212 293.918 253.514C296.46 255.674 295.726 257.035 294.898 259.174C294.08 261.334 292.958 263.366 291.564 265.207C291.564 265.207 294.271 264.228 296.842 257.777C296.842 257.777 299.498 262.716 299.966 266.251C300.434 269.786 297.079 277.31 291.6 280.198Z" fill="#407BFF"/>
<path d="M291.434 280.536C291.37 280.512 291.313 280.47 291.271 280.415C291.229 280.361 291.203 280.295 291.197 280.226C290.232 268.224 276.646 249.468 270.641 245.702C270.559 245.651 270.501 245.568 270.479 245.474C270.458 245.38 270.474 245.281 270.526 245.198C270.58 245.119 270.662 245.064 270.755 245.042C270.848 245.021 270.946 245.036 271.03 245.083C277.135 248.914 290.938 267.972 291.91 280.169C291.914 280.216 291.908 280.264 291.894 280.309C291.879 280.354 291.856 280.396 291.825 280.432C291.794 280.468 291.756 280.498 291.714 280.519C291.672 280.541 291.626 280.554 291.578 280.558C291.529 280.563 291.48 280.555 291.434 280.536Z" fill="white"/>
<path d="M75.6 340.087C75.3078 340.087 75.0276 339.971 74.821 339.765C74.6145 339.558 74.4984 339.278 74.4984 338.986V268.202C74.4984 267.91 74.6145 267.63 74.821 267.423C75.0276 267.217 75.3078 267.101 75.6 267.101C75.8922 267.101 76.1724 267.217 76.3789 267.423C76.5855 267.63 76.7016 267.91 76.7016 268.202V339C76.6978 339.29 76.5801 339.566 76.3739 339.77C76.1677 339.973 75.8897 340.087 75.6 340.087V340.087Z" fill="#455A64"/>
<path d="M119.376 314.326C119.153 314.323 118.935 314.253 118.753 314.125C118.57 313.996 118.431 313.815 118.354 313.606L96.6528 258.67C96.5684 258.404 96.5881 258.115 96.7079 257.863C96.8278 257.611 97.039 257.414 97.2986 257.312C97.5583 257.209 97.8472 257.209 98.1069 257.312C98.3666 257.414 98.5777 257.611 98.6976 257.863L120.398 312.799C120.454 312.934 120.482 313.079 120.481 313.225C120.48 313.371 120.45 313.516 120.392 313.65C120.335 313.784 120.251 313.905 120.145 314.006C120.04 314.108 119.916 314.187 119.779 314.239C119.651 314.293 119.515 314.322 119.376 314.326V314.326Z" fill="#455A64"/>
<path d="M116.77 307.723C116.62 307.724 116.471 307.693 116.334 307.634C116.196 307.574 116.073 307.487 115.97 307.378L75.6 264.646L35.28 307.198C35.1831 307.311 35.064 307.404 34.93 307.471C34.796 307.537 34.6499 307.575 34.5007 307.583C34.3514 307.591 34.2021 307.569 34.0618 307.517C33.9215 307.466 33.7931 307.386 33.6845 307.283C33.5759 307.181 33.4894 307.057 33.4301 306.92C33.3709 306.782 33.3402 306.635 33.3399 306.485C33.3397 306.336 33.3698 306.188 33.4286 306.05C33.4873 305.913 33.5734 305.789 33.6816 305.686L74.7936 262.284C74.8995 262.179 75.0255 262.096 75.164 262.04C75.3025 261.985 75.4508 261.957 75.6 261.96V261.96C75.7496 261.961 75.8974 261.992 76.0347 262.052C76.172 262.111 76.296 262.197 76.3992 262.306L117.569 305.88C117.716 306.036 117.815 306.232 117.852 306.444C117.89 306.656 117.864 306.874 117.779 307.071C117.695 307.269 117.554 307.437 117.374 307.556C117.195 307.674 116.985 307.737 116.77 307.738V307.723Z" fill="#455A64"/>
<path d="M31.7952 314.326C31.6571 314.324 31.5203 314.298 31.392 314.246C31.2556 314.194 31.1311 314.115 31.0258 314.014C30.9204 313.912 30.8364 313.791 30.7787 313.657C30.721 313.523 30.6908 313.378 30.6898 313.232C30.6887 313.086 30.717 312.941 30.7728 312.806L52.4736 257.87C52.5805 257.598 52.7912 257.38 53.0592 257.263C53.3272 257.146 53.6307 257.141 53.9028 257.248C54.1749 257.355 54.3934 257.565 54.5102 257.833C54.627 258.101 54.6325 258.405 54.5256 258.677L32.8176 313.613C32.7391 313.821 32.5994 314 32.4169 314.128C32.2344 314.255 32.0177 314.324 31.7952 314.326Z" fill="#455A64"/>
<path d="M117.878 306.031L120.758 313.598C120.765 313.663 120.765 313.728 120.758 313.793C120.766 313.838 120.766 313.884 120.758 313.93C120.682 314.14 120.527 314.313 120.326 314.412C120.056 314.547 119.758 314.617 119.455 314.617C119.153 314.617 118.855 314.547 118.584 314.412C118.434 314.333 118.315 314.207 118.246 314.052C118.246 314.052 118.246 314.052 118.246 314.052V313.951L115.589 306.852L117.878 306.031Z" fill="#407BFF"/>
<path d="M33.2928 306.031L30.4128 313.598C30.4057 313.663 30.4057 313.728 30.4128 313.793C30.4057 313.838 30.4057 313.884 30.4128 313.93C30.4895 314.14 30.6442 314.313 30.8448 314.412C31.1154 314.547 31.4136 314.617 31.716 314.617C32.0184 314.617 32.3166 314.547 32.5872 314.412C32.7371 314.333 32.8563 314.207 32.9256 314.052C32.9256 314.052 32.9256 314.052 32.9256 314.052V313.951L35.5896 306.852L33.2928 306.031Z" fill="#407BFF"/>
<path d="M76.8528 333.506V339.77C76.8426 339.881 76.8033 339.988 76.7389 340.079C76.6744 340.17 76.587 340.242 76.4856 340.289C76.2058 340.427 75.8978 340.499 75.5856 340.499C75.2734 340.499 74.9654 340.427 74.6856 340.289C74.5842 340.242 74.4968 340.17 74.4323 340.079C74.3679 339.988 74.3286 339.881 74.3184 339.77V333.506C74.708 333.297 75.1434 333.188 75.5856 333.188C76.0278 333.188 76.4632 333.297 76.8528 333.506Z" fill="#407BFF"/>
<path d="M120.715 257.885C120.715 256.078 119.131 254.148 115.783 251.981C109.598 247.963 95.7744 239.906 87.12 235.111C87.1155 235.094 87.1064 235.078 87.0938 235.065C87.0811 235.053 87.0653 235.044 87.048 235.039C80.3808 231 74.16 211.747 69.5592 197.11C67.9896 192.127 66.06 189.305 63.7992 187.98C63.2592 187.663 61.2648 186.54 60.8184 186.295C56.2968 183.588 50.3568 186.842 42.9624 190.889C36.144 194.618 30.8232 199.392 29.7504 212.057C29.1024 219.775 29.7504 234.514 31.2912 245.681C33.5592 264.336 36.3312 264.401 40.3848 267.49C47.34 272.868 63.0072 280.45 69.6096 283.02C81.5832 287.729 91.368 280.464 98.6616 276.864C105.351 273.479 111.809 269.654 117.994 265.416C119.815 264.084 120.766 262.745 120.744 261.334C120.708 260.765 120.722 258.468 120.715 257.885Z" fill="#263238"/>
<path d="M98.64 273.386C105.326 270.006 111.781 266.189 117.965 261.96C122.112 258.95 121.73 255.869 115.805 252.01C111.37 249.13 111.6 248.878 78.1992 230.518C78.1992 230.518 35.6112 255.646 37.4472 260.29C39.2832 264.934 61.3008 276.302 69.6024 279.571C81.5544 284.28 91.3392 276.986 98.64 273.386Z" fill="#37474F"/>
<path d="M63.5184 187.8C59.0328 185.446 53.208 188.642 46.0008 192.588C41.3856 195.122 37.4544 198.118 35.064 203.726L32.0256 201.97C34.4088 196.382 38.34 193.387 42.9408 190.86C50.3352 186.814 56.2752 183.559 60.7968 186.266C61.2 186.526 62.7696 187.404 63.5184 187.8Z" fill="#455A64"/>
<path d="M46.0008 192.624C57.0672 186.562 64.8792 182.256 69.5592 197.11C74.1672 211.747 80.3592 231 87.048 235.039C87.048 235.039 84.888 233.21 68.328 245.731C63.0576 249.713 56.6568 252.982 52.488 255.487C44.2584 260.39 39.2616 262.356 38.4768 261.701C34.1208 258.101 31.7664 226.457 32.8392 213.792C33.912 201.127 39.1896 196.354 46.0008 192.624Z" fill="#37474F"/>
<g opacity="0.5">
<path d="M46.0008 192.624C57.0672 186.562 64.8792 182.256 69.5592 197.11C74.1672 211.747 80.3592 231 87.048 235.039C87.048 235.039 75.6216 235.039 59.0616 243.974C41.8536 253.27 39.2184 262.356 38.4336 261.701C34.0776 258.101 31.7232 226.457 32.796 213.792C33.8688 201.127 39.1896 196.354 46.0008 192.624Z" fill="#455A64"/>
</g>
<path d="M257.947 157.128C260.878 156.473 263.462 155.861 265.45 155.35C276.019 152.65 279.202 149.15 279.526 144.478C280.051 137.018 277.258 136.961 272.441 140.294C270.438 141.716 268.244 142.848 265.925 143.657C266.731 142.736 267.402 141.706 267.919 140.597C268.639 138.739 267.66 137.551 267.019 137.234C266.515 136.99 266.004 138.278 264.262 139.704C262.015 141.526 260.201 141.864 258.343 144.406C257.633 145.341 256.611 145.992 255.463 146.242C254.412 146.479 237.154 151.202 229.068 152.592C224.323 146.551 219.917 140.107 214.898 133.692C207.173 123.799 203.501 122.417 199.166 123.202L195.401 135.614C195.401 135.614 220.846 165.581 221.148 165.955C222.012 167.123 223.222 167.989 224.607 168.429C225.991 168.87 227.479 168.863 228.859 168.41C239.818 165.192 251.417 160.145 257.947 157.128Z" fill="#FFA8A7"/>
<path d="M198.158 120.703C207.187 121.099 209.866 126.161 214.502 131.777C219.139 137.393 229.234 151.8 229.234 151.8L253.879 146.645C253.879 146.645 252.864 153.722 256.039 157.985C256.039 157.985 242.964 164.58 235.044 167.611C225.036 171.456 224.381 170.578 222.574 168.922C220.766 167.266 198.814 142.418 198.814 142.418L198.158 120.703Z" fill="#37474F"/>
<path d="M96.2784 137.4C98.6184 130.301 101.203 130.006 104.393 134.916C105.709 136.991 107.308 138.871 109.145 140.503C108.738 139.343 108.496 138.131 108.425 136.903C108.425 134.909 109.822 134.174 110.534 134.131C111.096 134.131 111.074 135.478 112.154 137.458C113.537 139.999 115.085 141.007 115.848 144.053C116.136 145.198 116.885 147.473 117.842 148.15C122.738 151.591 131.638 155.832 140.486 159.252C143.626 152.621 147.766 144.348 150.919 138.552C156.924 127.536 160.898 126.312 165.269 126.83L169.718 139.006C169.718 139.006 145.958 170.347 145.714 170.736C143.892 173.299 140.162 175.056 137.261 173.868C128.974 170.47 122.818 164.508 115.783 159.713C111.607 156.876 107.662 154.673 105.142 152.786C96.4224 146.292 94.8096 141.85 96.2784 137.4Z" fill="#FFA8A7"/>
<path d="M159.559 274.409C159.754 265.049 162.569 258.101 162.792 255.502C162.792 255.502 162.072 199.824 162.072 190.788L209.549 188.851C209.549 188.851 208.886 244.673 208.886 252.413C208.886 260.153 207.727 293.05 206.503 308.191L206.366 313.174L195.768 316.471C195.768 316.471 195.97 315.031 195.768 307.946C195.566 300.862 190.807 276.396 190.361 270.182C189.792 262.14 191.081 258.893 190.915 253.522C190.75 248.15 187.618 213 187.618 213C187.618 213 181.67 247.56 180.187 259.26C178.495 272.695 173.052 307.91 173.038 316.097C173.038 317.537 173.038 319.265 173.038 321.101C173.038 325.536 172.915 326.702 173.628 328.416C174.866 331.411 164.268 333.298 163.764 331.166L162.619 322.368V322.116V316.536C162.634 308.191 159.271 287.988 159.559 274.409Z" fill="#FFA8A7"/>
<path d="M227.124 327.07C227.413 327.929 227.361 328.867 226.98 329.69C226.613 330.461 222.61 332.722 217.202 332.354C213.197 332.072 209.339 330.725 206.028 328.452C203.969 327.084 201.823 326.832 199.145 326.674C196.466 326.515 192.953 325.19 192.37 323.938C191.786 322.685 192.456 320.532 192.456 320.532L227.124 327.07Z" fill="#37474F"/>
<path d="M205.315 310.2L205.747 310.106C205.982 310.043 206.227 310.031 206.467 310.07C206.728 310.153 206.958 310.311 207.13 310.524C207.662 311.196 208.125 311.919 208.512 312.684C209.642 314.527 212.026 316.061 214.618 317.458C216.389 318.408 218.117 319.142 219.938 319.963C221.76 320.784 224.258 321.31 225.698 322.289C227.822 323.729 228.096 327.329 225.698 328.726C223.618 329.95 218.131 331.274 212.378 329.647C209.246 328.762 205.769 325.414 201.658 325.09C199.037 324.888 194.09 324.154 192.406 322.166C191.786 321.281 192.614 318.487 193.298 316.082C194.018 313.447 194.933 309.329 195.804 309.559C195.84 310.078 195.739 310.207 196.078 310.56C196.416 310.913 196.834 311.1 197.186 311.402C197.79 312.002 198.278 312.707 198.626 313.483C198.763 313.829 199.018 314.115 199.346 314.29C199.793 314.455 200.117 314.174 200.506 314.002C200.996 313.777 201.55 313.736 202.068 313.886C202.017 313.367 201.925 312.851 201.794 312.346C201.734 312.187 201.719 312.015 201.751 311.849C201.821 311.689 201.939 311.556 202.09 311.467C203.064 310.823 204.163 310.391 205.315 310.2V310.2Z" fill="#455A64"/>
<path d="M183.938 342.384C184.255 342.686 184.162 344.746 183.809 345.264C183.456 345.782 181.253 347.712 177.329 348C173.578 348.266 170.222 347.762 168.019 346.358C165.816 344.954 164.743 343.414 164.542 341.275C164.34 339.137 164.542 337.07 163.548 335.429C162.605 333.91 161.107 332.196 160.783 331.368C160.063 329.575 160.783 327.012 160.783 327.012L183.938 342.384Z" fill="#37474F"/>
<path d="M173.657 323.707C173.685 324.518 173.83 325.321 174.089 326.09C174.667 327.746 175.441 329.326 176.393 330.799C176.86 331.57 177.382 332.306 177.955 333.002C179.093 334.356 180.504 335.465 181.706 336.761C182.988 337.986 183.807 339.616 184.025 341.376C184.183 344.321 180.986 345.322 178.524 345.754C175.861 346.221 173.128 346.085 170.525 345.358C169.159 344.999 167.924 344.256 166.969 343.215C166.014 342.175 165.379 340.881 165.139 339.49C165.002 338.669 165.053 337.834 164.959 337.013C164.63 335.133 163.844 333.362 162.67 331.858C161.984 330.988 161.395 330.047 160.913 329.05C160.142 327.228 160.754 325.176 161.251 323.362C161.676 321.792 162.151 320.021 162.691 320.165C162.691 320.978 162.691 321.065 163.274 321.605C163.994 322.325 164.038 323.354 164.822 323.966C164.569 323.289 164.385 322.587 164.275 321.871C164.223 321.584 164.282 321.288 164.441 321.043C164.697 320.811 165.006 320.646 165.341 320.561C166.509 320.163 167.715 319.89 168.941 319.747C170.097 319.556 171.277 319.556 172.433 319.747C172.776 319.812 173.086 319.992 173.311 320.258C173.515 320.552 173.623 320.902 173.621 321.259C173.671 321.72 173.635 322.93 173.657 323.707Z" fill="#455A64"/>
<path d="M176.789 331.411C175.687 330.59 173.232 330.583 171.886 330.727C170.521 330.846 169.209 331.307 168.07 332.066C167.902 332.187 167.698 332.245 167.492 332.229C167.286 332.213 167.093 332.125 166.946 331.98V331.98C166.86 331.897 166.793 331.797 166.749 331.685C166.706 331.574 166.687 331.455 166.695 331.335C166.702 331.216 166.736 331.1 166.793 330.995C166.85 330.89 166.929 330.798 167.026 330.727C168.285 329.797 169.784 329.245 171.346 329.136C174.658 328.898 175.622 329.467 175.622 329.467C175.622 329.467 177.12 330.439 176.789 331.411Z" fill="#F5F5F5"/>
<path d="M179.28 334.428C177.898 333.614 175.198 333.708 173.851 333.881C172.508 334.027 171.227 334.523 170.136 335.321C169.969 335.442 169.763 335.5 169.557 335.482C169.351 335.465 169.158 335.375 169.013 335.227V335.227C168.927 335.145 168.86 335.044 168.817 334.933C168.775 334.822 168.757 334.703 168.765 334.584C168.773 334.465 168.807 334.35 168.865 334.246C168.923 334.142 169.003 334.051 169.099 333.982C170.373 333.008 171.895 332.412 173.491 332.261C176.796 332.023 177.66 332.7 177.66 332.7C178.042 332.849 178.386 333.081 178.666 333.38C178.946 333.679 179.156 334.037 179.28 334.428V334.428Z" fill="#F5F5F5"/>
<path d="M170.006 325.968C171.4 325.725 172.833 325.844 174.168 326.314C174.751 326.645 175.133 327.566 174.758 327.797C173.59 327.326 172.324 327.153 171.072 327.293C169.825 327.41 168.607 327.741 167.472 328.272C167.191 328.402 166.86 328.574 166.565 328.74C166.472 328.791 166.369 328.823 166.263 328.833C166.158 328.844 166.051 328.833 165.949 328.801C165.848 328.77 165.754 328.718 165.673 328.649C165.592 328.581 165.525 328.496 165.478 328.402V328.402C165.394 328.237 165.378 328.046 165.432 327.869C165.485 327.692 165.605 327.542 165.766 327.451C167.056 326.658 168.503 326.152 170.006 325.968V325.968Z" fill="#F5F5F5"/>
<path d="M212.17 316.046C211.982 315.687 211.707 315.381 211.369 315.156C211.032 314.93 210.644 314.794 210.24 314.758C209.052 314.534 206.95 315.413 205.639 316.486C205.516 316.587 205.419 316.717 205.357 316.864C205.295 317.011 205.27 317.171 205.284 317.33C205.299 317.489 205.352 317.642 205.438 317.776C205.525 317.91 205.644 318.021 205.783 318.098V318.098C205.959 318.195 206.161 318.235 206.36 318.213C206.56 318.191 206.748 318.108 206.899 317.976C208.336 316.669 210.228 315.976 212.17 316.046Z" fill="#F5F5F5"/>
<path d="M215.856 318.12C215.599 317.754 215.257 317.456 214.859 317.25C214.462 317.044 214.021 316.938 213.574 316.939C213.574 316.939 210.463 317.033 208.534 318.826C208.415 318.923 208.323 319.048 208.263 319.189C208.204 319.331 208.179 319.484 208.192 319.637C208.205 319.79 208.254 319.937 208.336 320.067C208.418 320.196 208.531 320.304 208.663 320.381V320.381C208.832 320.476 209.027 320.515 209.219 320.493C209.412 320.471 209.593 320.389 209.736 320.258C210.53 319.465 211.493 318.861 212.552 318.491C213.612 318.121 214.741 317.994 215.856 318.12V318.12Z" fill="#F5F5F5"/>
<path d="M219.931 319.978C219.636 319.638 219.271 319.368 218.86 319.184C218.45 319 218.005 318.907 217.555 318.912C215.789 319.02 214.102 319.685 212.738 320.813C212.62 320.91 212.527 321.035 212.468 321.177C212.408 321.318 212.384 321.471 212.397 321.624C212.41 321.777 212.459 321.924 212.541 322.054C212.623 322.183 212.735 322.291 212.868 322.368C213.037 322.462 213.232 322.501 213.424 322.479C213.616 322.457 213.797 322.375 213.941 322.246C214.692 321.426 215.626 320.793 216.666 320.399C217.707 320.005 218.825 319.861 219.931 319.978V319.978Z" fill="#F5F5F5"/>
<path d="M209.578 188.851C209.578 188.851 210.211 228.185 210.298 235.097C210.384 242.009 210.298 255.257 210.298 262.01C210.298 262.01 208.548 264.962 198.569 264.955C188.59 264.948 187.15 262.19 187.15 262.19L185.674 230.395L182.88 263.4C180.861 264.774 178.582 265.72 176.183 266.179C173.785 266.638 171.317 266.602 168.934 266.071C160.718 264.3 159.509 261.852 159.509 261.852L161.129 188.981L209.578 188.851Z" fill="#37474F"/>
<path d="M185.659 230.395L187.099 217.046C187.099 217.046 193.946 215.376 198.526 211.927C197.051 213.718 195.295 215.257 193.327 216.485C190.548 218.047 189.209 218.688 189.209 218.688L187.207 231.605L186.854 256.805L185.659 230.395Z" fill="#263238"/>
<path d="M160.56 195.67C167.076 200.414 196.618 205.678 210.326 195.67C210.326 195.67 210.01 157.38 208.93 137.112C208.879 136.19 208.822 135.298 208.728 134.434C208.728 134.146 208.656 133.858 208.627 133.57C208.469 132.355 208.228 131.152 207.907 129.97C207.857 129.775 207.792 129.581 207.734 129.386C207.598 128.947 207.461 128.522 207.281 128.098C207.194 127.874 207.101 127.651 207 127.435C206.899 127.219 206.813 127.025 206.698 126.83C206.688 126.791 206.671 126.755 206.647 126.722C206.546 126.528 206.431 126.334 206.323 126.146C206.215 125.959 206.078 125.736 205.934 125.534C205.79 125.333 205.668 125.153 205.531 124.98C205.394 124.807 205.214 124.591 205.042 124.404C204.885 124.222 204.719 124.049 204.545 123.886L204.185 123.547L203.825 123.252C203.674 123.115 203.501 122.993 203.335 122.87C202.786 122.486 202.209 122.144 201.607 121.848C201.442 121.769 201.269 121.682 201.096 121.618C201.054 121.601 201.013 121.582 200.974 121.56L200.354 121.33C200.008 121.194 199.655 121.076 199.296 120.977C198.931 120.876 198.55 120.782 198.151 120.696C197.705 120.696 197.215 120.696 196.711 120.696H195.631L194.465 120.739C189.338 120.962 181.98 121.79 176.076 122.546L174.924 122.705L173.909 122.827C169.855 123.36 166.853 123.799 166.392 123.871H166.32C164.995 124.21 163.764 124.526 162.77 124.822C160.063 125.621 162.05 124.937 161.482 127.558C159.732 135.247 161.77 163.219 161.77 163.219L160.56 195.67Z" fill="#455A64"/>
<path d="M172.346 99.6648C172.346 99.6648 174.456 109.565 175.298 111.185C175.864 112.186 176.791 112.934 177.89 113.273L177.739 106.31L172.346 99.6648Z" fill="#263238"/>
<path d="M174.96 85.488C174.223 85.4048 173.476 85.4913 172.777 85.7408C172.078 85.9904 171.446 86.3965 170.928 86.928C169.2 88.6848 170.186 94.2 172.346 99.6648L176.314 100.126L174.96 85.488Z" fill="#263238"/>
<path d="M177.502 100.126C176.71 100.601 175.572 99.0744 174.622 98.0448C173.671 97.0152 170.438 95.6184 168.862 98.9808C167.285 102.343 170.302 106.944 172.793 107.736C177.113 109.104 177.79 106.296 177.79 106.296L178.034 122.28C182.585 130.524 197.986 126.305 192.211 120.84V116.786C194.395 116.941 196.587 116.941 198.77 116.786C201.967 116.29 203.278 114.079 204.25 110.616C205.805 105.058 206.41 100.572 205.078 89.6424C203.638 77.6688 189.698 77.5464 182.174 82.2768C174.65 87.0072 177.502 100.126 177.502 100.126Z" fill="#FFA8A7"/>
<path d="M175.68 78.9432C178.318 77.8164 181.074 76.9857 183.895 76.4664C189.972 75.1488 196.135 73.932 201.708 71.1312C202.351 70.7146 203.102 70.4967 203.868 70.5048C205.308 70.6992 205.97 72.4704 206.028 73.9392C206.078 75.3083 205.898 76.6761 205.495 77.9856C205.937 77.5622 206.528 77.3301 207.14 77.3395C207.752 77.349 208.335 77.5992 208.764 78.036C209.171 78.4952 209.469 79.0413 209.633 79.6326C209.798 80.224 209.826 80.8451 209.714 81.4488C209.354 84.1704 207.274 86.4384 204.804 87.648C202.334 88.8576 199.541 89.1528 196.798 89.232C192.965 89.347 189.13 89.0598 185.357 88.3752C184.452 88.1476 183.513 88.0794 182.585 88.1736C182.121 88.2254 181.681 88.4069 181.316 88.6973C180.95 88.9876 180.674 89.3751 180.518 89.8152C180.115 91.3272 179.69 101.616 177.581 101.659C177.185 101.659 175.687 99.0744 174.701 98.1528C173.477 96.9864 172.238 88.1736 172.022 86.5464C171.996 86.4197 171.939 86.3012 171.857 86.2008C170.474 84.264 172.094 81.0024 173.801 79.9368C174.407 79.5694 175.035 79.2377 175.68 78.9432Z" fill="#263238"/>
<path d="M172.613 86.3376C172.366 86.6274 172.065 86.8657 171.726 87.0391C171.387 87.2124 171.017 87.3172 170.638 87.3476C170.258 87.3781 169.877 87.3334 169.514 87.2163C169.152 87.0993 168.817 86.912 168.527 86.6652C168.237 86.4184 167.999 86.117 167.825 85.7781C167.652 85.4392 167.547 85.0695 167.517 84.69C167.486 84.3106 167.531 83.9289 167.648 83.5667C167.765 83.2046 167.952 82.869 168.199 82.5792L172.613 86.3376Z" fill="#263238"/>
<path d="M192.197 116.801C192.197 116.801 185.069 116.081 182.57 114.785C181.103 114.021 179.901 112.831 179.122 111.372C179.499 112.831 180.165 114.2 181.08 115.397C182.909 117.73 192.197 119.45 192.197 119.45V116.801Z" fill="#F28F8F"/>
<path d="M190.483 98.34C190.473 98.6224 190.381 98.8957 190.216 99.1258C190.052 99.3559 189.824 99.5326 189.56 99.6339C189.296 99.7352 189.009 99.7566 188.733 99.6955C188.457 99.6344 188.205 99.4934 188.008 99.2902C187.812 99.0869 187.68 98.8304 187.628 98.5525C187.577 98.2746 187.608 97.9877 187.718 97.7275C187.829 97.4673 188.013 97.2453 188.249 97.0892C188.484 96.9331 188.761 96.8498 189.043 96.8496C189.237 96.8495 189.428 96.8883 189.606 96.9638C189.784 97.0393 189.945 97.1499 190.08 97.289C190.214 97.4281 190.319 97.5929 190.388 97.7734C190.458 97.954 190.49 98.1467 190.483 98.34Z" fill="#263238"/>
<path d="M188.971 92.9472L185.911 94.632C185.693 94.212 185.646 93.7238 185.78 93.27C185.915 92.8161 186.22 92.432 186.631 92.1984C186.833 92.0886 187.055 92.0209 187.283 91.9993C187.512 91.9776 187.743 92.0026 187.961 92.0726C188.18 92.1425 188.382 92.2561 188.556 92.4065C188.729 92.5568 188.871 92.7407 188.971 92.9472V92.9472Z" fill="#263238"/>
<path d="M191.556 108.218L194.818 109.442C194.746 109.661 194.632 109.864 194.481 110.037C194.33 110.211 194.145 110.353 193.938 110.453C193.731 110.554 193.506 110.612 193.276 110.624C193.046 110.636 192.816 110.601 192.6 110.522C192.161 110.348 191.808 110.011 191.613 109.581C191.418 109.151 191.398 108.663 191.556 108.218Z" fill="#F28F8F"/>
<path d="M203.234 94.1352L200.448 91.9752C200.578 91.7866 200.745 91.6265 200.94 91.5048C201.134 91.3831 201.351 91.3022 201.577 91.2671C201.803 91.2321 202.035 91.2436 202.256 91.301C202.478 91.3584 202.686 91.4604 202.867 91.6008C203.243 91.8944 203.492 92.322 203.56 92.7942C203.628 93.2665 203.512 93.7469 203.234 94.1352V94.1352Z" fill="#263238"/>
<path d="M202.378 97.9368C202.368 98.2192 202.275 98.4925 202.111 98.7226C201.947 98.9527 201.718 99.1294 201.455 99.2307C201.191 99.332 200.903 99.3534 200.627 99.2923C200.351 99.2312 200.099 99.0902 199.903 98.887C199.707 98.6837 199.574 98.4272 199.523 98.1493C199.471 97.8714 199.502 97.5845 199.613 97.3243C199.723 97.0641 199.907 96.8421 200.143 96.686C200.379 96.5299 200.655 96.4466 200.938 96.4464C201.131 96.4463 201.322 96.4851 201.501 96.5606C201.679 96.6361 201.84 96.7467 201.974 96.8858C202.108 97.0249 202.213 97.1897 202.283 97.3702C202.352 97.5508 202.384 97.7435 202.378 97.9368Z" fill="#263238"/>
<path d="M196.272 96.9144L196.747 105.511L201.233 103.978L196.272 96.9144Z" fill="#F28F8F"/>
<path d="M166.86 123.864C156.312 124.03 153.576 130.243 150.466 136.824C147.355 143.405 139.464 158.28 139.464 158.28L119.606 149.302C118.467 152.845 116.1 155.866 112.932 157.819C112.932 157.819 122.292 165.689 130.37 171.456C137.203 176.338 141.17 178.872 143.798 177.122C145.742 175.826 165.125 150.482 165.125 150.482C170.064 142.778 171.115 129.696 166.86 123.864Z" fill="#37474F"/>
<path d="M200.448 101.825L199.318 101.249L198.209 99.6648C198.388 99.5889 198.582 99.5565 198.776 99.5703C198.97 99.5841 199.158 99.6436 199.325 99.744C199.829 100.104 200.448 101.825 200.448 101.825Z" fill="#407BFF"/>
<path opacity="0.65" d="M200.448 101.825L199.318 101.249L198.209 99.6648C198.388 99.5889 198.582 99.5565 198.776 99.5703C198.97 99.5841 199.158 99.6436 199.325 99.744C199.829 100.104 200.448 101.825 200.448 101.825Z" fill="black"/>
<path d="M210.96 96.8784C210.89 98.0535 210.437 99.1734 209.672 100.068C208.906 100.962 207.869 101.581 206.719 101.832L204.941 102.134C204.162 102.278 203.371 102.341 202.579 102.322H202.342C202.212 102.322 202.082 102.322 201.96 102.322C201.739 102.3 201.521 102.264 201.305 102.214C201.192 102.192 201.081 102.161 200.974 102.12C200.874 102.092 200.777 102.053 200.686 102.005C200.644 101.99 200.605 101.968 200.57 101.94C200.522 101.916 200.476 101.887 200.434 101.854C200.361 101.793 200.3 101.72 200.254 101.638L199.642 100.385C199.501 100.135 199.288 99.933 199.032 99.8048C198.775 99.6765 198.486 99.6277 198.202 99.6648L196.934 99.888C196.621 99.9701 196.329 100.12 196.08 100.328C195.831 100.536 195.631 100.796 195.494 101.09C195.494 101.09 195.228 101.753 194.89 102.53C194.551 103.308 192.449 104.323 190.202 104.69L188.424 105.007C188.064 105.061 187.697 105.061 187.337 105.007C187.134 104.993 186.934 104.957 186.739 104.899L186.466 104.82L186.293 104.748C186.137 104.688 185.988 104.613 185.846 104.525C185.364 104.33 177.61 101.177 176.544 98.6352C174.845 94.5456 181.822 90.3336 184.334 89.5344C184.622 89.4174 184.921 89.3305 185.227 89.2752L203.544 86.136C204.456 85.9541 205.403 86.1322 206.186 86.6328C206.654 86.928 208.382 87.9504 209.102 88.3824C209.166 88.4114 209.227 88.4477 209.282 88.4904C209.383 88.548 209.484 88.62 209.585 88.6848C209.619 88.7076 209.65 88.7341 209.678 88.764C209.779 88.8432 209.873 88.9296 209.966 89.016C210.079 89.1299 210.183 89.2527 210.276 89.3832C210.348 89.473 210.41 89.5694 210.463 89.6712C210.553 89.8131 210.63 89.9624 210.694 90.1176C210.751 90.2544 210.794 90.3912 210.838 90.528C210.876 90.6574 210.902 90.7899 210.917 90.924C210.923 90.9548 210.923 90.9868 210.917 91.0176C210.928 91.1686 210.928 91.3202 210.917 91.4712C210.998 93.2904 211.013 95.0928 210.96 96.8784Z" fill="#407BFF"/>
<g opacity="0.2">
<path d="M210.96 96.8784C210.89 98.0535 210.437 99.1734 209.672 100.068C208.906 100.962 207.869 101.581 206.719 101.832L204.941 102.134C204.162 102.278 203.371 102.341 202.579 102.322H202.342C202.212 102.322 202.082 102.322 201.96 102.322C201.739 102.3 201.521 102.264 201.305 102.214C201.192 102.192 201.081 102.161 200.974 102.12C200.874 102.092 200.777 102.053 200.686 102.005C200.644 101.99 200.605 101.968 200.57 101.94C200.522 101.916 200.476 101.887 200.434 101.854C200.361 101.793 200.3 101.72 200.254 101.638L199.642 100.385C199.501 100.135 199.288 99.933 199.032 99.8048C198.775 99.6765 198.486 99.6277 198.202 99.6648L196.934 99.888C196.621 99.9701 196.329 100.12 196.08 100.328C195.831 100.536 195.631 100.796 195.494 101.09C195.494 101.09 195.228 101.753 194.89 102.53C194.551 103.308 192.449 104.323 190.202 104.69L188.424 105.007C188.064 105.061 187.697 105.061 187.337 105.007C187.134 104.993 186.934 104.957 186.739 104.899L186.466 104.82L186.293 104.748C186.137 104.688 185.988 104.613 185.846 104.525C185.364 104.33 177.61 101.177 176.544 98.6352C174.845 94.5456 181.822 90.3336 184.334 89.5344C184.622 89.4174 184.921 89.3305 185.227 89.2752L203.544 86.136C204.456 85.9541 205.403 86.1322 206.186 86.6328C206.654 86.928 208.382 87.9504 209.102 88.3824C209.166 88.4114 209.227 88.4477 209.282 88.4904C209.383 88.548 209.484 88.62 209.585 88.6848C209.619 88.7076 209.65 88.7341 209.678 88.764C209.779 88.8432 209.873 88.9296 209.966 89.016C210.079 89.1299 210.183 89.2527 210.276 89.3832C210.348 89.473 210.41 89.5694 210.463 89.6712C210.553 89.8131 210.63 89.9624 210.694 90.1176C210.751 90.2544 210.794 90.3912 210.838 90.528C210.876 90.6574 210.902 90.7899 210.917 90.924C210.923 90.9548 210.923 90.9868 210.917 91.0176C210.928 91.1686 210.928 91.3202 210.917 91.4712C210.998 93.2904 211.013 95.0928 210.96 96.8784Z" fill="black"/>
</g>
<path d="M209.102 88.3824C208.373 88.0069 207.54 87.8853 206.734 88.0368L188.417 91.2696C187.318 91.508 186.321 92.0826 185.564 92.9135C184.806 93.7443 184.326 94.7904 184.19 95.9064L178.934 92.8752C180.521 91.4775 182.345 90.3753 184.32 89.6208V89.6208C184.608 89.5038 184.907 89.4169 185.213 89.3616L203.544 86.136C204.456 85.9541 205.403 86.1322 206.186 86.6328C206.64 86.928 208.382 87.9504 209.102 88.3824Z" fill="#407BFF"/>
<path opacity="0.35" d="M209.102 88.3824C208.373 88.0069 207.54 87.8853 206.734 88.0368L188.417 91.2696C187.318 91.508 186.321 92.0826 185.564 92.9135C184.806 93.7443 184.326 94.7904 184.19 95.9064L178.934 92.8752C180.521 91.4775 182.345 90.3753 184.32 89.6208V89.6208C184.608 89.5038 184.907 89.4169 185.213 89.3616L203.544 86.136C204.456 85.9541 205.403 86.1322 206.186 86.6328C206.64 86.928 208.382 87.9504 209.102 88.3824Z" fill="white"/>
<path d="M210.96 91.4856C211.003 93.2808 211.003 95.0808 210.96 96.8856C210.89 98.0592 210.438 99.1777 209.672 100.07C208.906 100.962 207.869 101.578 206.719 101.825L204.941 102.142C202.687 102.538 200.621 102.293 200.254 101.609L199.642 100.356C199.501 100.106 199.288 99.9042 199.032 99.776C198.775 99.6477 198.486 99.5989 198.202 99.636L196.927 99.8664C196.612 99.9457 196.319 100.095 196.07 100.303C195.821 100.511 195.621 100.773 195.487 101.069L194.875 102.509C194.537 103.315 192.442 104.294 190.195 104.669L188.417 104.986C187.904 105.095 187.372 105.089 186.862 104.966C186.352 104.844 185.875 104.608 185.468 104.277C185.06 103.947 184.732 103.529 184.507 103.054C184.283 102.58 184.167 102.062 184.169 101.537C184.126 99.744 184.126 97.9368 184.169 96.144C184.24 94.9689 184.694 93.8492 185.461 92.9561C186.228 92.063 187.266 91.4454 188.417 91.1976L206.734 87.972C207.251 87.8633 207.786 87.873 208.299 88.0003C208.812 88.1276 209.29 88.3692 209.696 88.7072C210.103 89.0451 210.427 89.4705 210.646 89.9516C210.865 90.4328 210.972 90.9572 210.96 91.4856V91.4856Z" fill="#407BFF"/>
<path opacity="0.5" d="M210.96 96.8784C210.89 98.0535 210.437 99.1734 209.672 100.068C208.906 100.962 207.869 101.581 206.719 101.832L204.941 102.134C204.162 102.278 203.371 102.341 202.579 102.322H202.342C202.212 102.322 202.082 102.322 201.96 102.322C201.739 102.3 201.521 102.264 201.305 102.214C201.192 102.192 201.081 102.161 200.974 102.12C200.874 102.092 200.777 102.053 200.686 102.005C200.644 101.99 200.605 101.968 200.57 101.94C200.522 101.916 200.476 101.887 200.434 101.854C200.361 101.793 200.3 101.72 200.254 101.638L199.642 100.385C199.501 100.135 199.288 99.933 199.032 99.8047C198.775 99.6765 198.486 99.6277 198.202 99.6648L196.934 99.888C196.621 99.9701 196.329 100.12 196.08 100.328C195.831 100.536 195.631 100.796 195.494 101.09C195.494 101.09 195.228 101.753 194.89 102.53C194.551 103.308 192.449 104.323 190.202 104.69L188.424 105.007C188.064 105.061 187.697 105.061 187.337 105.007C187.134 104.993 186.934 104.957 186.739 104.899L186.466 104.82L186.293 104.748C186.137 104.688 185.988 104.613 185.846 104.525C185.335 104.21 184.913 103.769 184.621 103.245C184.329 102.72 184.175 102.13 184.176 101.53C184.133 99.7296 184.133 97.9296 184.176 96.1296C184.247 94.9544 184.701 93.8348 185.468 92.9417C186.235 92.0486 187.273 91.431 188.424 91.1832L206.741 87.9504C207.547 87.7989 208.38 87.9205 209.11 88.296C209.174 88.325 209.234 88.3613 209.29 88.404C209.39 88.4616 209.491 88.5336 209.592 88.5984C209.626 88.6212 209.658 88.6477 209.686 88.6776C209.786 88.7568 209.88 88.8432 209.974 88.9296C210.086 89.0435 210.19 89.1663 210.283 89.2968C210.355 89.3866 210.417 89.483 210.47 89.5848C210.56 89.7267 210.637 89.876 210.701 90.0312C210.758 90.168 210.802 90.3048 210.845 90.4416C210.883 90.571 210.909 90.7035 210.924 90.8376C210.931 90.8684 210.931 90.9003 210.924 90.9312C210.935 91.0822 210.935 91.2338 210.924 91.3848C211.001 93.2616 211.013 95.0928 210.96 96.8784Z" fill="white"/>
<g opacity="0.7">
<path d="M210.96 91.4856C210.971 91.3346 210.971 91.183 210.96 91.032C210.967 91.0011 210.967 90.9692 210.96 90.9384C210.945 90.8043 210.919 90.6718 210.881 90.5424V90.5424C210.838 90.4056 210.794 90.2688 210.737 90.132C210.673 89.9768 210.596 89.8275 210.506 89.6856C210.453 89.5838 210.391 89.4874 210.319 89.3976C210.226 89.2671 210.122 89.1443 210.01 89.0304C209.916 88.944 209.822 88.8576 209.722 88.7784C209.696 88.7506 209.667 88.7264 209.635 88.7064L198.626 99.6576C198.843 99.6872 199.049 99.7679 199.228 99.8931C199.407 100.018 199.554 100.184 199.656 100.378L200.268 101.63C200.315 101.712 200.376 101.786 200.448 101.846C200.49 101.88 200.536 101.909 200.585 101.933C200.619 101.961 200.658 101.983 200.7 101.998C200.792 102.046 200.888 102.084 200.988 102.113C201.096 102.153 201.206 102.185 201.319 102.206C201.535 102.257 201.754 102.293 201.974 102.314C202.097 102.314 202.226 102.314 202.356 102.314H202.594C203.075 102.325 203.556 102.303 204.034 102.25L211.018 95.2728C211.01 94.0128 211.003 92.76 210.96 91.4856Z" fill="#407BFF"/>
<path d="M202.277 88.8288L186.271 104.827L186.444 104.899L186.718 104.978C186.912 105.036 187.113 105.073 187.315 105.086C187.676 105.14 188.042 105.14 188.402 105.086L189.562 104.878L206.302 88.1448L202.277 88.8288Z" fill="#407BFF"/>
<path d="M190.886 90.8304L184.154 97.5696C184.154 98.916 184.154 100.262 184.154 101.616C184.163 102.235 184.326 102.841 184.63 103.38L198.526 89.484L190.886 90.8304Z" fill="#407BFF"/>
</g>
<path d="M179.928 97.9008C179.94 97.9981 179.929 98.0968 179.897 98.1895C179.865 98.2821 179.812 98.3662 179.743 98.4355C179.673 98.5049 179.589 98.5575 179.497 98.5896C179.404 98.6217 179.305 98.6324 179.208 98.6208C178.999 98.57 178.814 98.4496 178.683 98.2794C178.552 98.1092 178.484 97.8995 178.488 97.6848C178.476 97.5875 178.487 97.4888 178.519 97.3961C178.551 97.3035 178.604 97.2194 178.673 97.1501C178.743 97.0807 178.827 97.0281 178.919 96.996C179.012 96.9639 179.111 96.9532 179.208 96.9648C179.416 97.0167 179.6 97.1375 179.731 97.3074C179.862 97.4773 179.931 97.6864 179.928 97.9008Z" fill="#263238"/>
<g opacity="0.5">
<path d="M207.432 88.3608C207.953 88.3603 208.466 88.4837 208.93 88.7208C208.983 88.7473 209.033 88.7786 209.081 88.8144C209.175 88.8694 209.267 88.9295 209.354 88.9944H209.39H209.426L209.678 89.2176C209.781 89.3222 209.875 89.4354 209.959 89.556C210.018 89.6271 210.068 89.7044 210.11 89.7864V89.7864C210.184 89.9091 210.249 90.0366 210.305 90.168C210.347 90.2713 210.383 90.3771 210.413 90.4848V90.4848V90.5424C210.447 90.6476 210.468 90.7563 210.478 90.8664V90.9744C210.488 91.1086 210.488 91.2434 210.478 91.3776C210.528 93.1632 210.528 94.9776 210.478 96.756C210.434 97.8489 210.036 98.898 209.344 99.7448C208.651 100.592 207.702 101.19 206.64 101.45L204.862 101.76C204.2 101.875 203.531 101.935 202.86 101.94H202.55H202.327H201.982C201.773 101.917 201.566 101.881 201.362 101.832C201.26 101.811 201.159 101.785 201.06 101.753C200.99 101.73 200.923 101.701 200.858 101.666H200.808L200.736 101.623C200.703 101.594 200.674 101.56 200.65 101.522L200.038 100.27C199.893 99.9632 199.665 99.7039 199.38 99.5216C199.095 99.3394 198.763 99.2418 198.425 99.24C198.331 99.2329 198.237 99.2329 198.144 99.24L196.87 99.4632C196.49 99.5565 196.137 99.7346 195.837 99.984C195.536 100.233 195.296 100.548 195.134 100.903L194.522 102.343C194.27 102.941 192.406 103.891 190.123 104.294L188.352 104.604C188.143 104.64 187.931 104.659 187.718 104.662C187.599 104.669 187.478 104.669 187.358 104.662C187.178 104.646 187 104.614 186.826 104.568L186.61 104.496L186.516 104.46H186.43C186.293 104.41 186.163 104.345 186.041 104.266C185.584 103.984 185.207 103.59 184.946 103.121C184.685 102.652 184.549 102.124 184.55 101.587C184.514 99.8088 184.514 97.9872 184.55 96.2088C184.625 95.1248 185.048 94.094 185.757 93.2701C186.465 92.4462 187.421 91.8733 188.482 91.6368L206.806 88.44C207.012 88.403 207.222 88.3837 207.432 88.3824M207.432 88.0008C207.191 88.0013 206.95 88.0205 206.712 88.0584L188.395 91.2912C187.244 91.539 186.206 92.1566 185.439 93.0497C184.672 93.9428 184.218 95.0624 184.147 96.2376C184.104 98.0448 184.104 99.8376 184.147 101.638C184.147 102.238 184.3 102.828 184.592 103.353C184.885 103.877 185.306 104.318 185.818 104.633C185.959 104.721 186.108 104.796 186.264 104.856L186.437 104.928L186.71 105.007C186.905 105.065 187.105 105.101 187.308 105.115C187.437 105.123 187.567 105.123 187.697 105.115C187.938 105.118 188.179 105.099 188.417 105.058L190.195 104.741C192.442 104.352 194.515 103.373 194.882 102.581C195.25 101.789 195.487 101.141 195.487 101.141C195.624 100.847 195.824 100.587 196.073 100.379C196.322 100.171 196.613 100.02 196.927 99.9384L198.194 99.7152C198.266 99.7081 198.339 99.7081 198.41 99.7152C198.66 99.718 198.906 99.7858 199.121 99.9121C199.337 100.038 199.517 100.219 199.642 100.435L200.254 101.688C200.3 101.77 200.361 101.843 200.434 101.904C200.476 101.938 200.522 101.967 200.57 101.99C200.605 102.019 200.644 102.041 200.686 102.055C200.777 102.103 200.874 102.142 200.974 102.17C201.081 102.211 201.192 102.242 201.305 102.264C201.521 102.315 201.739 102.351 201.96 102.372C202.082 102.372 202.212 102.372 202.342 102.372H202.874C203.568 102.368 204.259 102.303 204.941 102.178L206.719 101.875C207.876 101.623 208.918 100.997 209.684 100.094C210.451 99.1908 210.899 98.0611 210.96 96.8784C211.003 95.0784 211.003 93.2808 210.96 91.4856C210.971 91.3346 210.971 91.183 210.96 91.032C210.967 91.0011 210.967 90.9692 210.96 90.9384C210.945 90.8043 210.919 90.6718 210.881 90.5424V90.5424C210.838 90.4056 210.794 90.2688 210.737 90.132C210.673 89.9768 210.596 89.8275 210.506 89.6856C210.453 89.5838 210.391 89.4874 210.319 89.3976C210.226 89.2671 210.122 89.1443 210.01 89.0304C209.916 88.944 209.822 88.8576 209.722 88.7784C209.694 88.7485 209.662 88.722 209.628 88.6992C209.527 88.6344 209.426 88.5624 209.326 88.5048C209.27 88.4621 209.21 88.4258 209.146 88.3968C208.63 88.1295 208.056 87.9912 207.475 87.9936L207.432 88.0008Z" fill="black"/>
</g>
<path d="M184.169 101.616L184.075 97.7352C184.075 97.0872 184.025 96.4536 184.075 95.784C184.152 95.1219 184.358 94.4812 184.68 93.8976C185.313 92.7154 186.351 91.8005 187.603 91.32C188.232 91.1279 188.875 90.9859 189.526 90.8952L191.434 90.5496L199.073 89.2464C201.622 88.824 204.175 88.4232 206.734 88.044C204.199 88.5624 201.662 89.0616 199.123 89.5416L191.52 90.924L189.612 91.248C188.981 91.3295 188.358 91.4595 187.747 91.6368C186.566 92.0907 185.578 92.9407 184.954 94.0416C184.637 94.5871 184.43 95.1885 184.342 95.8128C184.27 96.432 184.306 97.0944 184.284 97.7352L184.169 101.616Z" fill="white"/>
<g opacity="0.3">
<path d="M313.992 70.4976V163.709C312.394 173.465 307.375 183.048 298.872 191.846C295.805 195.002 292.497 197.915 288.979 200.558C285.542 203.097 281.966 205.441 278.266 207.578C264.168 215.743 247.471 221.489 229.73 224.858C226.908 225.401 224.057 225.881 221.177 226.298V132.698C241.121 129.473 259.913 123.533 275.652 114.871C295.186 104.071 307.102 90.744 311.422 76.8048C312.241 74.7447 312.908 72.627 313.416 70.4688C313.438 70.4085 313.479 70.357 313.533 70.3216C313.587 70.2863 313.65 70.2689 313.715 70.2721C313.779 70.2753 313.84 70.2989 313.89 70.3395C313.94 70.38 313.976 70.4354 313.992 70.4976V70.4976Z" fill="#407BFF"/>
</g>
<path d="M220.766 226.745V132.36L221.09 132.31C241.495 129.012 260.287 122.863 275.436 114.526C294.235 104.172 306.54 91.104 311.004 76.74V76.416H311.134C311.901 74.4458 312.531 72.425 313.02 70.368C313.085 70.2324 313.19 70.1205 313.322 70.0478C313.453 69.9752 313.604 69.9456 313.753 69.963C313.903 69.9805 314.043 70.0442 314.154 70.1452C314.265 70.2463 314.342 70.3795 314.374 70.5264V163.709C312.725 173.839 307.591 183.379 299.124 192.113C296.043 195.284 292.718 198.209 289.181 200.861C285.733 203.414 282.141 205.767 278.424 207.91C264.643 215.88 248.27 221.726 229.774 225.24C226.958 225.78 224.071 226.262 221.206 226.68L220.766 226.745ZM221.537 132.994V225.874C224.244 225.478 226.966 225.017 229.63 224.513C248.04 221.006 264.334 215.203 278.042 207.233C281.728 205.104 285.293 202.773 288.72 200.249C292.22 197.626 295.513 194.738 298.57 191.609C306.929 182.969 311.99 173.609 313.61 163.673V71.196C313.116 73.1413 312.498 75.0532 311.76 76.92C307.231 91.4856 294.804 104.712 275.81 115.166C260.64 123.511 241.92 129.674 221.537 132.994Z" fill="#407BFF"/>
<path d="M242.791 203.057C242.587 203.057 242.391 202.976 242.246 202.831C242.102 202.687 242.021 202.491 242.021 202.286V147.235C242.027 147.07 242.085 146.912 242.188 146.782C242.29 146.653 242.431 146.559 242.59 146.515C247.147 145.291 251.352 143.988 255.442 142.519C255.56 142.473 255.688 142.458 255.814 142.474C255.939 142.49 256.059 142.538 256.162 142.613C256.264 142.684 256.347 142.779 256.405 142.889C256.463 142.999 256.493 143.122 256.493 143.246V198.298C256.491 198.455 256.441 198.609 256.349 198.737C256.258 198.866 256.13 198.964 255.982 199.018C251.842 200.501 247.601 201.818 243.022 203.05C242.945 203.061 242.868 203.064 242.791 203.057V203.057ZM243.562 147.826V201.278C247.55 200.191 251.287 199.025 254.93 197.729V144.312C251.28 145.586 247.565 146.76 243.562 147.826V147.826Z" fill="white"/>
<path d="M267.559 194.208C267.411 194.211 267.265 194.168 267.142 194.086C267.033 194.016 266.943 193.92 266.882 193.807C266.82 193.694 266.788 193.567 266.789 193.438V138.386C266.787 138.235 266.829 138.087 266.91 137.96C266.99 137.832 267.106 137.73 267.242 137.666C270.87 136.041 274.41 134.226 277.848 132.23C278.633 131.813 279.36 131.366 280.058 130.927C280.174 130.853 280.309 130.813 280.447 130.813C280.585 130.813 280.72 130.853 280.836 130.927C280.957 130.992 281.059 131.089 281.13 131.206C281.201 131.324 281.239 131.459 281.239 131.597V186.648C281.24 186.78 281.206 186.909 281.142 187.024C281.077 187.139 280.985 187.235 280.872 187.303C280.152 187.757 279.396 188.232 278.59 188.657C275.105 190.673 271.517 192.504 267.84 194.143C267.751 194.182 267.656 194.204 267.559 194.208ZM268.33 138.89V192.25C271.339 190.86 274.464 189.24 277.848 187.296C278.496 186.958 279.101 186.576 279.698 186.216V132.936C279.338 133.152 278.978 133.361 278.59 133.562C274.954 135.686 271.584 137.4 268.33 138.89V138.89Z" fill="white"/>
<path d="M292.277 179.066C292.165 179.068 292.054 179.043 291.953 178.994C291.816 178.931 291.701 178.829 291.622 178.701C291.542 178.573 291.502 178.425 291.506 178.274V123.245C291.507 123.132 291.533 123.02 291.581 122.918C291.63 122.816 291.7 122.726 291.787 122.654C294.053 120.782 296.216 118.79 298.267 116.686C300.568 114.358 302.673 111.843 304.56 109.169C304.653 109.034 304.788 108.932 304.943 108.879C305.098 108.825 305.267 108.823 305.424 108.872C305.58 108.921 305.717 109.019 305.815 109.151C305.912 109.284 305.964 109.444 305.964 109.608V164.659C305.963 164.818 305.915 164.973 305.827 165.106C303.898 167.845 301.75 170.424 299.405 172.817C297.305 174.958 295.094 176.986 292.781 178.894C292.638 179.008 292.46 179.069 292.277 179.066V179.066ZM293.047 123.626V176.64C294.919 175.034 296.683 173.393 298.296 171.737C300.527 169.462 302.573 167.014 304.416 164.414V111.97C302.856 113.992 301.173 115.915 299.376 117.73C297.369 119.798 295.254 121.759 293.04 123.605L293.047 123.626Z" fill="white"/>
<g opacity="0.3">
<path d="M230.479 212.604L261.792 154.759L286.834 187.296C286.834 187.296 276.278 202.402 230.479 212.604Z" fill="#407BFF"/>
</g>
<g opacity="0.3">
<path d="M172.318 216.082C143.726 214.555 115.92 207.766 93.996 195.72C69.3576 182.148 56.8224 164.436 56.4048 146.659V144.888L56.16 84.9696C56.16 80.6928 63.6912 92.8176 79.4664 105.252C79.8408 105.554 80.1864 105.835 80.5968 106.13C81.4752 106.807 82.3752 107.47 83.3112 108.132C86.7594 110.574 90.3462 112.815 94.0536 114.842C115.92 126.859 143.597 133.642 172.08 135.19L172.318 216.082Z" fill="#407BFF"/>
</g>
<path d="M56.9808 85.056C58.5743 86.4213 60.073 87.8935 61.4664 89.4624C66.9087 95.3521 72.7809 100.83 79.0344 105.85C79.308 106.073 79.5888 106.289 79.8768 106.505L80.172 106.742C81.0144 107.39 81.9072 108.053 82.9152 108.766C86.3844 111.217 89.9902 113.47 93.7152 115.512C114.595 127.032 142.099 134.232 171.324 135.917L171.554 215.268C142.466 213.605 115.092 206.434 94.3848 195.036C70.812 182.04 57.6 164.868 57.1752 146.645V144.874L56.952 85.056M56.6208 84.12C56.3256 84.12 56.1816 84.4008 56.1816 84.9984L56.4048 144.902V146.674C56.8224 164.45 69.3648 182.162 93.996 195.734C115.891 207.794 143.726 214.584 172.318 216.11L172.08 135.19C143.604 133.642 115.92 126.859 94.0824 114.842C90.375 112.815 86.7882 110.574 83.34 108.132C82.404 107.47 81.504 106.807 80.6256 106.13C80.244 105.835 79.9056 105.554 79.4952 105.252C65.9232 94.56 58.4424 84.12 56.6208 84.12Z" fill="#407BFF"/>
<path d="M144.67 204.59H144.569C144.331 204.59 121.169 201.235 98.6328 189.794C72.8136 176.69 62.676 156.379 62.5752 156.17C62.5216 156.066 62.4944 155.95 62.496 155.832V140.28C62.4944 140.122 62.545 139.967 62.64 139.841L79.5672 115.908C79.6492 115.797 79.7588 115.709 79.8851 115.654C80.0114 115.598 80.15 115.577 80.2872 115.591C80.4233 115.605 80.5533 115.655 80.6635 115.736C80.7737 115.817 80.8601 115.926 80.9136 116.052L101.916 165.012L100.08 155.983C100.051 155.836 100.066 155.683 100.122 155.544C100.179 155.405 100.274 155.285 100.397 155.198L117.36 143.282C117.445 143.218 117.544 143.174 117.649 143.153C117.753 143.132 117.861 143.134 117.965 143.16C118.069 143.182 118.168 143.226 118.254 143.288C118.341 143.35 118.414 143.429 118.469 143.52L145.368 188.707C145.439 188.827 145.476 188.964 145.476 189.103V203.82C145.478 203.922 145.459 204.023 145.421 204.117C145.383 204.211 145.327 204.297 145.255 204.369C145.183 204.441 145.097 204.498 145.003 204.536C144.908 204.574 144.807 204.592 144.706 204.59H144.67ZM64.0296 155.63C65.0088 157.51 75.168 176.143 99.3096 188.405C119.146 198.485 139.464 202.186 143.878 202.906V189.312L117.511 145.018L101.671 156.17L104.861 172.01C104.879 172.187 104.836 172.365 104.739 172.513C104.641 172.662 104.495 172.772 104.326 172.825C104.157 172.879 103.974 172.872 103.809 172.806C103.644 172.74 103.507 172.619 103.421 172.464L80.0352 117.96L64.0368 140.539L64.0296 155.63Z" fill="white"/>
<path d="M144.374 159C143.891 158.997 143.409 158.949 142.934 158.856C138.29 157.949 134.518 152.866 134.518 147.53C134.47 146.241 134.708 144.958 135.215 143.772C135.721 142.585 136.484 141.526 137.448 140.669C138.238 140.011 139.166 139.54 140.163 139.29C141.161 139.041 142.201 139.02 143.208 139.229C147.845 140.136 151.618 145.219 151.618 150.554C151.666 151.844 151.429 153.127 150.922 154.314C150.415 155.5 149.652 156.56 148.687 157.416C147.48 158.434 145.953 158.995 144.374 159V159ZM141.775 140.669C140.552 140.658 139.364 141.079 138.42 141.857C137.633 142.571 137.013 143.449 136.604 144.43C136.194 145.41 136.006 146.469 136.051 147.53C136.051 152.167 139.27 156.566 143.251 157.344C144.034 157.513 144.845 157.504 145.624 157.317C146.403 157.13 147.13 156.77 147.751 156.264C148.538 155.55 149.158 154.672 149.567 153.691C149.977 152.711 150.165 151.652 150.12 150.59C150.12 145.954 146.909 141.554 142.92 140.777C142.543 140.704 142.16 140.665 141.775 140.662V140.669Z" fill="white"/>
<g opacity="0.3">
<path d="M61.7904 103.279C61.7904 103.279 68.8104 115.613 83.3256 120.977V114.007C69.408 107.426 61.7904 95.1072 61.7904 95.1072V103.279Z" fill="#407BFF"/>
</g>
<g opacity="0.3">
<path d="M61.7904 115.908C61.7904 115.908 68.8104 128.242 83.3256 133.606V126.636C69.408 120.055 61.7904 107.736 61.7904 107.736V115.908Z" fill="#407BFF"/>
</g>
<g opacity="0.3">
<path d="M61.7904 128.537C61.7904 128.537 68.8104 140.87 83.3256 146.234V139.265C69.408 132.684 61.7904 120.365 61.7904 120.365V128.537Z" fill="#407BFF"/>
</g>
<path d="M87.7188 13.5V59H78.375V13.5H87.7188ZM101.719 13.5V20.8438H64.5938V13.5H101.719ZM130.25 47.0938C130.25 46.2812 130.125 45.5521 129.875 44.9062C129.646 44.2396 129.208 43.6354 128.562 43.0938C127.917 42.5312 127.01 41.9792 125.844 41.4375C124.677 40.8958 123.167 40.3333 121.312 39.75C119.25 39.0833 117.292 38.3333 115.438 37.5C113.604 36.6667 111.979 35.6979 110.562 34.5938C109.167 33.4688 108.062 32.1667 107.25 30.6875C106.458 29.2083 106.062 27.4896 106.062 25.5312C106.062 23.6354 106.479 21.9167 107.312 20.375C108.146 18.8125 109.312 17.4792 110.812 16.375C112.312 15.25 114.083 14.3854 116.125 13.7812C118.188 13.1771 120.448 12.875 122.906 12.875C126.26 12.875 129.188 13.4792 131.688 14.6875C134.188 15.8958 136.125 17.5521 137.5 19.6562C138.896 21.7604 139.594 24.1667 139.594 26.875H130.281C130.281 25.5417 130 24.375 129.438 23.375C128.896 22.3542 128.062 21.5521 126.938 20.9688C125.833 20.3854 124.438 20.0938 122.75 20.0938C121.125 20.0938 119.771 20.3438 118.688 20.8438C117.604 21.3229 116.792 21.9792 116.25 22.8125C115.708 23.625 115.438 24.5417 115.438 25.5625C115.438 26.3333 115.625 27.0312 116 27.6562C116.396 28.2812 116.979 28.8646 117.75 29.4062C118.521 29.9479 119.469 30.4583 120.594 30.9375C121.719 31.4167 123.021 31.8854 124.5 32.3438C126.979 33.0938 129.156 33.9375 131.031 34.875C132.927 35.8125 134.51 36.8646 135.781 38.0312C137.052 39.1979 138.01 40.5208 138.656 42C139.302 43.4792 139.625 45.1562 139.625 47.0312C139.625 49.0104 139.24 50.7812 138.469 52.3438C137.698 53.9062 136.583 55.2292 135.125 56.3125C133.667 57.3958 131.927 58.2188 129.906 58.7812C127.885 59.3438 125.625 59.625 123.125 59.625C120.875 59.625 118.656 59.3333 116.469 58.75C114.281 58.1458 112.292 57.2396 110.5 56.0312C108.729 54.8229 107.312 53.2812 106.25 51.4062C105.188 49.5312 104.656 47.3125 104.656 44.75H114.062C114.062 46.1667 114.281 47.3646 114.719 48.3438C115.156 49.3229 115.771 50.1146 116.562 50.7188C117.375 51.3229 118.333 51.7604 119.438 52.0312C120.562 52.3021 121.792 52.4375 123.125 52.4375C124.75 52.4375 126.083 52.2083 127.125 51.75C128.188 51.2917 128.969 50.6562 129.469 49.8438C129.99 49.0312 130.25 48.1146 130.25 47.0938ZM163.188 35.9375V43H145.531V35.9375H163.188ZM188.969 42.7812H177.375V35.4688H188.969C190.76 35.4688 192.219 35.1771 193.344 34.5938C194.469 33.9896 195.292 33.1562 195.812 32.0938C196.333 31.0312 196.594 29.8333 196.594 28.5C196.594 27.1458 196.333 25.8854 195.812 24.7188C195.292 23.5521 194.469 22.6146 193.344 21.9062C192.219 21.1979 190.76 20.8438 188.969 20.8438H180.625V59H171.25V13.5H188.969C192.531 13.5 195.583 14.1458 198.125 15.4375C200.688 16.7083 202.646 18.4688 204 20.7188C205.354 22.9688 206.031 25.5417 206.031 28.4375C206.031 31.375 205.354 33.9167 204 36.0625C202.646 38.2083 200.688 39.8646 198.125 41.0312C195.583 42.1979 192.531 42.7812 188.969 42.7812ZM249.875 35.1875V37.3438C249.875 40.8021 249.406 43.9062 248.469 46.6562C247.531 49.4062 246.208 51.75 244.5 53.6875C242.792 55.6042 240.75 57.0729 238.375 58.0938C236.021 59.1146 233.406 59.625 230.531 59.625C227.677 59.625 225.062 59.1146 222.688 58.0938C220.333 57.0729 218.292 55.6042 216.562 53.6875C214.833 51.75 213.49 49.4062 212.531 46.6562C211.594 43.9062 211.125 40.8021 211.125 37.3438V35.1875C211.125 31.7083 211.594 28.6042 212.531 25.875C213.469 23.125 214.792 20.7812 216.5 18.8438C218.229 16.9062 220.271 15.4271 222.625 14.4062C225 13.3854 227.615 12.875 230.469 12.875C233.344 12.875 235.958 13.3854 238.312 14.4062C240.688 15.4271 242.729 16.9062 244.438 18.8438C246.167 20.7812 247.5 23.125 248.438 25.875C249.396 28.6042 249.875 31.7083 249.875 35.1875ZM240.406 37.3438V35.125C240.406 32.7083 240.188 30.5833 239.75 28.75C239.312 26.9167 238.667 25.375 237.812 24.125C236.958 22.875 235.917 21.9375 234.688 21.3125C233.458 20.6667 232.052 20.3438 230.469 20.3438C228.885 20.3438 227.479 20.6667 226.25 21.3125C225.042 21.9375 224.01 22.875 223.156 24.125C222.323 25.375 221.688 26.9167 221.25 28.75C220.812 30.5833 220.594 32.7083 220.594 35.125V37.3438C220.594 39.7396 220.812 41.8646 221.25 43.7188C221.688 45.5521 222.333 47.1042 223.188 48.375C224.042 49.625 225.083 50.5729 226.312 51.2188C227.542 51.8646 228.948 52.1875 230.531 52.1875C232.115 52.1875 233.521 51.8646 234.75 51.2188C235.979 50.5729 237.01 49.625 237.844 48.375C238.677 47.1042 239.312 45.5521 239.75 43.7188C240.188 41.8646 240.406 39.7396 240.406 37.3438ZM294 35.1875V37.3438C294 40.8021 293.531 43.9062 292.594 46.6562C291.656 49.4062 290.333 51.75 288.625 53.6875C286.917 55.6042 284.875 57.0729 282.5 58.0938C280.146 59.1146 277.531 59.625 274.656 59.625C271.802 59.625 269.188 59.1146 266.812 58.0938C264.458 57.0729 262.417 55.6042 260.688 53.6875C258.958 51.75 257.615 49.4062 256.656 46.6562C255.719 43.9062 255.25 40.8021 255.25 37.3438V35.1875C255.25 31.7083 255.719 28.6042 256.656 25.875C257.594 23.125 258.917 20.7812 260.625 18.8438C262.354 16.9062 264.396 15.4271 266.75 14.4062C269.125 13.3854 271.74 12.875 274.594 12.875C277.469 12.875 280.083 13.3854 282.438 14.4062C284.812 15.4271 286.854 16.9062 288.562 18.8438C290.292 20.7812 291.625 23.125 292.562 25.875C293.521 28.6042 294 31.7083 294 35.1875ZM284.531 37.3438V35.125C284.531 32.7083 284.312 30.5833 283.875 28.75C283.438 26.9167 282.792 25.375 281.938 24.125C281.083 22.875 280.042 21.9375 278.812 21.3125C277.583 20.6667 276.177 20.3438 274.594 20.3438C273.01 20.3438 271.604 20.6667 270.375 21.3125C269.167 21.9375 268.135 22.875 267.281 24.125C266.448 25.375 265.812 26.9167 265.375 28.75C264.938 30.5833 264.719 32.7083 264.719 35.125V37.3438C264.719 39.7396 264.938 41.8646 265.375 43.7188C265.812 45.5521 266.458 47.1042 267.312 48.375C268.167 49.625 269.208 50.5729 270.438 51.2188C271.667 51.8646 273.073 52.1875 274.656 52.1875C276.24 52.1875 277.646 51.8646 278.875 51.2188C280.104 50.5729 281.135 49.625 281.969 48.375C282.802 47.1042 283.438 45.5521 283.875 43.7188C284.312 41.8646 284.531 39.7396 284.531 37.3438Z" fill="#407BFF"/>
</svg>
